<svg width="128" height="128" viewBox="0 0 128 128" fill="none" xmlns="http://www.w3.org/2000/svg">
<g clip-path="url(#clip0_35_112)">
<path d="M48 56C52.4183 56 56 50.6274 56 44C56 37.3726 52.4183 32 48 32C43.5817 32 40 37.3726 40 44C40 50.6274 43.5817 56 48 56Z" fill="white"/>
<path d="M80 56C84.4183 56 88 50.6274 88 44C88 37.3726 84.4183 32 80 32C75.5817 32 72 37.3726 72 44C72 50.6274 75.5817 56 80 56Z" fill="white"/>
<path d="M64.568 104.568C53.8119 104.557 43.4995 100.28 35.8938 92.6742C28.2881 85.0685 24.0106 74.7561 24 64H33.144C33.0775 68.1694 33.8412 72.3103 35.3908 76.1816C36.9403 80.0529 39.2447 83.5772 42.1696 86.5492C45.0946 89.5212 48.5817 91.8815 52.4278 93.4926C56.2739 95.1037 60.4021 95.9334 64.572 95.9334C68.7419 95.9334 72.8701 95.1037 76.7162 93.4926C80.5623 91.8815 84.0494 89.5212 86.9744 86.5492C89.8993 83.5772 92.2037 80.0529 93.7532 76.1816C95.3028 72.3103 96.0665 68.1694 96 64H105.144C105.131 74.7568 100.852 85.0692 93.245 92.6747C85.6381 100.28 75.3248 104.557 64.568 104.568Z" fill="white"/>
<path d="M64 8C75.0758 8 85.9028 11.2843 95.112 17.4377C104.321 23.5911 111.499 32.3371 115.737 42.5697C119.976 52.8024 121.085 64.0621 118.924 74.9251C116.763 85.788 111.43 95.7662 103.598 103.598C95.7663 111.43 85.788 116.763 74.9251 118.924C64.0621 121.085 52.8024 119.976 42.5698 115.737C32.3371 111.499 23.5911 104.321 17.4377 95.1119C11.2844 85.9028 8.00003 75.0758 8.00003 64C8.01697 49.1531 13.9224 34.9191 24.4208 24.4207C34.9191 13.9224 49.1531 8.01694 64 8ZM64 0C51.342 0 38.9683 3.75353 28.4435 10.7859C17.9188 17.8184 9.71575 27.8138 4.87174 39.5083C0.02773 51.2027 -1.23968 64.071 1.22977 76.4858C3.69922 88.9006 9.79463 100.304 18.7452 109.255C27.6958 118.205 39.0995 124.301 51.5143 126.77C63.929 129.24 76.7973 127.972 88.4918 123.128C100.186 118.284 110.182 110.081 117.214 99.5565C124.246 89.0318 128 76.658 128 64C128 47.0261 121.257 30.7475 109.255 18.7452C97.2525 6.74284 80.9739 0 64 0Z" fill="white"/>
</g>
<defs>
<clipPath id="clip0_35_112">
<rect width="128" height="128" fill="white"/>
</clipPath>
</defs>
</svg>
