<svg width="128" height="128" viewBox="0 0 128 128" fill="none" xmlns="http://www.w3.org/2000/svg">
<path d="M96 70V66H92V70C91.9957 73.638 92.8992 77.2196 94.6287 80.4202C94.8607 81.2188 95.0917 82.0458 95.3184 82.8912L92.782 87.9639C89.2309 95.0662 83.364 100.745 76.1499 104.063C68.9358 107.381 60.8058 108.14 53.1023 106.214L52.4851 106.06L51.5149 109.94L52.1321 110.095C53.6936 110.484 55.2781 110.776 56.8761 110.968C47.3209 116.883 36.3035 120.011 25.0657 120C22.3652 120.008 19.7419 119.1 17.625 117.423C15.508 115.746 14.0228 113.401 13.4124 110.77L12.4094 106.509C9.57925 94.5534 10.4701 82.0188 14.9627 70.584L25.8626 42.7288C25.9534 42.4965 26 42.2494 26 42V20.9075L40.4173 8.2925L54.471 13.5625L57.7102 21.6607L51.8342 29.0059L46.2883 23.4597L47.8975 18.6326L44.1025 17.3675L42.1025 23.3675C41.9851 23.7199 41.9681 24.098 42.0534 24.4595C42.1388 24.821 42.3231 25.1517 42.5857 25.4143L47.3878 30.2164L38.3726 42.8377C38.0806 43.2463 37.9531 43.7498 38.0154 44.2481L39.4255 55.5288C41.1165 68.9149 39.9783 82.5069 36.0845 95.4253L39.9155 96.5747C42.1949 89.0028 43.574 81.1885 44.0242 73.2937C47.0392 67.4062 51.4905 62.3743 56.9662 58.6636C62.4419 54.9529 68.7651 52.6833 75.3507 52.0648C75.5084 52.7414 75.6957 53.4141 75.9177 54.0803L78.1028 60.6328L81.8972 59.3672L79.7124 52.8152C78.6612 49.664 78.4675 46.2899 79.151 43.0391C79.8345 39.7883 81.3707 36.7779 83.6019 34.3168C85.8331 31.8558 88.6789 30.0327 91.8474 29.0348C95.0158 28.0368 98.3927 27.8998 101.632 28.638C101.28 29.4548 100.98 30.2931 100.735 31.148L100.077 33.4505L103.923 34.5496L104.581 32.2469C105.486 29.1148 107.256 26.3014 109.688 24.1302C112.119 21.959 115.115 20.5181 118.329 19.9729L117.671 16.0271C114.845 16.506 112.145 17.5491 109.731 19.0941C107.317 20.6392 105.238 22.6546 103.62 25.0202C100.145 24.0427 96.4861 23.9078 92.948 24.6266C89.4099 25.3455 86.0941 26.8973 83.2755 29.1535C80.4569 31.4097 78.2168 34.3053 76.7408 37.6002C75.2648 40.8951 74.5954 44.4943 74.7882 48.0996C68.751 48.696 62.906 50.5517 57.6305 53.5471C52.355 56.5425 47.7663 60.6109 44.1606 65.4896C44.0849 61.9931 43.8293 58.5029 43.3948 55.0327L42.0815 44.5269L50.2551 33.0837L50.5857 33.4143C50.7846 33.6132 51.0233 33.7679 51.286 33.8682C51.5488 33.9686 51.8298 34.0124 52.1106 33.9969C52.3915 33.9813 52.6659 33.9067 52.9159 33.7778C53.166 33.649 53.386 33.4689 53.5618 33.2493L61.5618 23.2493C61.7828 22.9731 61.9266 22.6432 61.9784 22.2932C62.0303 21.9433 61.9884 21.5858 61.8569 21.2574L57.8569 11.2574C57.7537 10.999 57.5976 10.7651 57.3988 10.5706C57.1999 10.376 56.9627 10.2251 56.7021 10.1275L40.7021 4.12748C40.3639 4.00031 39.9974 3.96732 39.6418 4.03203C39.2863 4.09673 38.9549 4.25671 38.6831 4.49491L22.6831 18.4949C22.4685 18.6826 22.2966 18.914 22.1788 19.1736C22.061 19.4332 22 19.715 22 20V41.6226L11.2376 69.1265C6.44834 81.3168 5.49871 94.6795 8.51588 107.425L9.51881 111.687C10.3333 115.196 12.3147 118.325 15.1389 120.562C17.9632 122.799 21.463 124.011 25.0657 124C37.8085 124.012 50.2679 120.24 60.8638 113.161L63.1094 111.664L62.8155 111.223C69.8237 111.004 76.6421 108.893 82.5477 105.113C88.4533 101.333 93.2259 96.0254 96.3596 89.753L96.7853 88.9017C98.9201 98.5598 99.998 108.421 100 118.313V124H104V118.313C103.999 107.911 102.841 97.5422 100.549 87.3965C104.396 90.3849 109.129 92.0049 114 92V88C109.228 87.9947 104.653 86.0965 101.278 82.722C97.9035 79.3475 96.0054 74.7723 96 70Z" fill="white"/>
<path d="M108 38.929C108 42.926 106.412 46.7593 103.586 49.5857C100.759 52.412 96.926 53.9999 92.929 54H90V58H92.929C95.4334 58 97.9133 57.5068 100.227 56.5484C102.541 55.59 104.643 54.1852 106.414 52.4143C108.185 50.6434 109.59 48.541 110.548 46.2272C111.507 43.9133 112 41.4334 112 38.929V38H108V38.929Z" fill="white"/>
<path d="M18.1616 101.212L21.8384 102.788L23.5662 98.7561C30.4244 82.7098 33.3153 65.2471 31.9941 47.8467L28.0059 48.1533C29.2783 64.9104 26.4942 81.7274 19.8894 97.1804L18.1616 101.212Z" fill="white"/>
<path d="M77.1316 69.2278C76.2282 72.841 74.2408 76.0912 71.4365 78.5421C68.6321 80.9929 65.145 82.5271 61.4434 82.9385L51.7791 84.0122L52.2209 87.9878L61.8853 86.9141C66.3982 86.4125 70.6497 84.5421 74.0687 81.554C77.4878 78.5659 79.9106 74.6032 81.012 70.198L81.9402 66.4851L78.0598 65.5149L77.1316 69.2278Z" fill="white"/>
</svg>
